<svg xmlns="http://www.w3.org/2000/svg" viewBox="0 0 400 116" xml:space="preserve">
  <path fill="#00529c" d="M64 0H14C6.3 0 0 6.3 0 14v50c0 7.7 6.3 14 14 14h50c7.7 0 14-6.3 14-14V14c0-7.7-6.3-14-14-14zm6 14v47.5L46.8 39.1C55.3 31.3 60 25.6 60 16c0-2.7-.8-5.5-2.4-8H64c3.3 0 6 2.7 6 6zM14 70c-3.3 0-6-2.7-6-6V14c0-3.3 2.7-6 6-6h4c8.9 0 12 4.3 12 8 0 7.1-3.8 11.1-13.7 20L13 39l3.3 3C26.2 50.9 30 55 30 62c0 3.7-3.1 8-12 8h-4zm21.6 0c1.6-2.5 2.4-5.3 2.4-8 0-9.6-4.7-15.3-13.1-23C33.3 31.3 38 25.6 38 16c0-2.7-.8-5.5-2.4-8H40c8.9 0 12 4.3 12 8 0 7.1-3.8 11.1-13.7 20l-3.2 2.9 31.5 30.5c-.8.4-1.7.6-2.6.6H35.6zM88 15h27.8c4.6 0 8.2 1.2 10.7 3.6 2.5 2.4 3.7 5.3 3.7 8.9 0 3-.9 5.5-2.7 7.6-1.2 1.4-2.9 2.5-5.2 3.3 3.5.9 6 2.3 7.6 4.5 1.6 2.1 2.4 4.7 2.4 7.9 0 2.6-.6 4.9-1.7 7-1.2 2.1-2.7 3.7-4.8 4.9-1.2.8-3.1 1.3-5.6 1.6-3.3.5-5.6.7-6.7.7H88V15zm15 19.6h6.5c2.3 0 3.9-.4 4.8-1.2.9-.8 1.4-2 1.4-3.6 0-1.5-.5-2.6-1.4-3.4-.9-.8-2.5-1.2-4.7-1.2H103v9.4zm0 19.7h7.6c2.6 0 4.4-.5 5.4-1.4 1.1-.9 1.6-2.2 1.6-3.8 0-1.5-.5-2.7-1.6-3.6-1-.9-2.9-1.3-5.5-1.3H103v10.1zM140.4 65V15h24.8c4.6 0 8.1.4 10.5 1.2 2.4.8 4.4 2.3 5.9 4.6 1.5 2.2 2.2 4.9 2.2 8.1 0 2.8-.6 5.2-1.7 7.2s-2.7 3.6-4.7 4.9c-1.3.8-3 1.5-5.2 2 1.8.6 3.1 1.2 3.9 1.8.5.4 1.3 1.3 2.4 2.6 1 1.3 1.7 2.4 2.1 3.1l7.2 14.5H171l-8-15.3c-1-2-1.9-3.3-2.7-3.9-1.1-.8-2.3-1.2-3.6-1.2h-1.3V65h-15zm15-29.7h6.3c.7 0 2-.2 3.9-.7 1-.2 1.8-.7 2.4-1.6.6-.8.9-1.8.9-2.9 0-1.6-.5-2.9-1.5-3.7-1-.9-2.8-1.3-5.5-1.3h-6.5v10.2zM193.1 15H208v50h-14.9V15z" class="st1"/>
  <path fill="#ed6809" d="M245.2 64.3v-4.5c-2.2 3.5-5.6 5.3-9.9 5.3-2.8 0-5.4-.8-7.8-2.4-2.4-1.6-4.2-3.8-5.5-6.6-1.3-2.8-2-6-2-9.7 0-3.6.6-6.8 1.8-9.7 1.2-2.9 2.9-5.1 5.3-6.7 2.4-1.5 5-2.3 7.9-2.3 2.1 0 4 .5 5.7 1.4 1.7.9 3 2.1 4.1 3.5V15h6v49.3h-5.6zm-19-17.8c0 4.6 1 8 2.9 10.3 1.9 2.3 4.2 3.4 6.8 3.4 2.6 0 4.9-1.1 6.7-3.2s2.8-5.5 2.8-9.9c0-4.9-.9-8.5-2.8-10.8-1.9-2.3-4.2-3.4-6.9-3.4s-4.9 1.1-6.7 3.3c-1.9 2.1-2.8 5.6-2.8 10.3zm55.5 13.9c-2.2 1.9-3.7 2.8-5.8 3.6s-4.3 1.2-6.6 1.2c-3.9 0-6.9-1-9-2.9-2.1-1.9-3.1-4.4-3.1-7.3 0-1.7.4-3.3 1.2-4.8.8-1.4 1.8-2.6 3.1-3.5 1.3-.9 2.7-1.5 4.3-2 1.2-.3 3-.6 5.3-.9 4.9-.6 8.4-1.3 10.7-2.1v-1.6c0-2.5-.6-4.2-1.7-5.2-1.5-1.4-3.8-2.1-6.8-2.1-2.8 0-4.9.5-6.3 1.5-1.3 1-2.3 2.8-3 5.3l-5.9-.8c.5-2.5 1.4-4.6 2.6-6.1 1.2-1.6 3-2.8 5.3-3.6 2.3-.8 5-1.3 8-1.3s5.5.4 7.4 1.1c1.9.7 3.3 1.6 4.2 2.7.9 1.1 1.5 2.5 1.9 4.1.2 1 .3 2.9.3 5.6v23h-6.2l.1-3.9zm.1-14c-2.2.9-5.5 1.7-9.8 2.3-2.5.4-4.2.8-5.2 1.2-1 .4-1.8 1.1-2.4 2-.6.9-.8 1.8-.8 2.9 0 1.6.6 3 1.8 4 1.2 1.1 3 1.6 5.3 1.6s4.4-.5 6.2-1.5c1.8-1 3.1-2.4 4-4.2.6-1.4 1-3.4 1-6.1v-2.2zM295.2 78V28.6h5.5v4.6c1.3-1.8 2.7-3.2 4.4-4.1 1.6-.9 3.6-1.4 5.9-1.4 3 0 5.7.8 8 2.4 2.3 1.6 4.1 3.8 5.2 6.6 1.2 2.9 1.8 6 1.8 9.4 0 3.7-.7 6.9-2 9.9-1.3 2.9-3.2 5.2-5.7 6.7-2.5 1.6-5.1 2.3-7.8 2.3-2 0-3.8-.4-5.4-1.3-1.6-.9-2.9-1.9-3.9-3.2V78h-6zm5.4-31.3c0 4.6.9 8 2.8 10.2 1.8 2.2 4.1 3.3 6.7 3.3 2.7 0 5-1.1 6.9-3.4 1.9-2.3 2.9-5.8 2.9-10.6 0-4.6-.9-8-2.8-10.2-1.9-2.3-4.1-3.4-6.7-3.4-2.6 0-4.8 1.2-6.8 3.6-2 2.4-3 5.9-3 10.5zm56.8 6.1 6.2.8c-1 3.7-2.8 6.5-5.4 8.5-2.6 2-6 3-10.1 3-5.2 0-9.3-1.6-12.3-4.8-3-3.2-4.6-7.7-4.6-13.5 0-6 1.5-10.7 4.6-14 3.1-3.3 7.1-5 11.9-5 4.7 0 8.6 1.6 11.6 4.9 3 3.3 4.5 7.8 4.5 13.7V48h-26.4c.2 3.9 1.3 6.9 3.3 9 2 2.1 4.4 3.1 7.4 3.1 2.2 0 4.1-.6 5.6-1.7 1.6-1.2 2.8-3 3.7-5.6zM337.7 43h19.8c-.3-3-1-5.3-2.3-6.8-1.9-2.3-4.4-3.5-7.4-3.5-2.8 0-5.1.9-7 2.8-1.8 1.9-2.9 4.4-3.1 7.5zm33.5 21.3V28.6h5.4v5.1c2.6-3.9 6.4-5.9 11.3-5.9 2.1 0 4.1.4 5.9 1.2 1.8.8 3.1 1.8 4 3 .9 1.3 1.5 2.7 1.9 4.5.2 1.1.3 3.1.3 5.9v22h-6V42.6c0-2.5-.2-4.3-.7-5.5-.5-1.2-1.3-2.2-2.5-2.9-1.2-.7-2.6-1.1-4.2-1.1-2.6 0-4.8.8-6.6 2.5-1.9 1.6-2.8 4.7-2.8 9.3v19.5h-6z" class="st2"/>
  <path fill="#00529c" d="M0 111V94h3.5l4.1 12c.4 1.1.7 2 .8 2.5l.9-2.7L13.6 94h3.1v17h-2.2V96.8L9.4 111H7.3L2.2 96.5V111H0zm28.8-4 2.2.3c-.3 1.3-1 2.2-1.9 2.9-.9.7-2.2 1-3.6 1-1.9 0-3.3-.6-4.4-1.7-1.1-1.1-1.6-2.7-1.6-4.7 0-2.1.5-3.7 1.6-4.8 1.1-1.1 2.5-1.7 4.3-1.7 1.7 0 3.1.6 4.1 1.7 1.1 1.1 1.6 2.7 1.6 4.7v.6h-9.4c.1 1.4.5 2.4 1.2 3.1.7.7 1.6 1.1 2.6 1.1.8 0 1.5-.2 2-.6.5-.3 1-1 1.3-1.9zm-7.1-3.3h7.1c-.1-1-.4-1.8-.8-2.3-.7-.8-1.6-1.2-2.7-1.2-1 0-1.8.3-2.5 1-.6.5-1 1.4-1.1 2.5zm12 7.3V98.7h1.9v1.9c.5-.9.9-1.4 1.4-1.7.4-.3.9-.4 1.4-.4.7 0 1.5.2 2.2.7l-.7 1.9c-.5-.3-1-.5-1.6-.5-.5 0-.9.1-1.3.4-.4.3-.6.7-.8 1.1-.2.7-.4 1.6-.4 2.4v6.4h-2.1zm16.4-1.5c-.8.7-1.6 1.1-2.3 1.4-.7.3-1.5.4-2.4.4-1.4 0-2.5-.3-3.2-1-.7-.7-1.1-1.5-1.1-2.5 0-.6.1-1.2.4-1.7.3-.5.7-.9 1.1-1.2.5-.3 1-.5 1.5-.7.4-.1 1.1-.2 1.9-.3 1.7-.2 3-.4 3.8-.7v-.5c0-.8-.2-1.4-.6-1.8-.5-.5-1.4-.7-2.4-.7s-1.8.2-2.2.5c-.5.3-.8 1-1.1 1.8l-2.1-.3c.2-.9.5-1.6.9-2.1s1.1-1 1.9-1.2c.8-.3 1.8-.4 2.9-.4 1.1 0 2 .1 2.6.4.7.2 1.2.6 1.5.9s.5.8.7 1.4c.1.4.1 1 .1 1.9v2.8c0 1.9 0 3.2.1 3.7s.3 1 .5 1.5h-2.2c-.1-.5-.3-1-.3-1.6zm-.2-4.7c-.8.3-1.9.6-3.5.8-.9.1-1.5.3-1.9.4-.4.2-.6.4-.8.7-.2.3-.3.6-.3 1 0 .6.2 1 .6 1.4.4.4 1.1.6 1.9.6.8 0 1.6-.2 2.2-.5.6-.4 1.1-.8 1.4-1.4.2-.5.3-1.2.3-2.1v-.9zm5.5-8.4V94h2.1v2.4h-2.1zm0 14.6V98.7h2.1V111h-2.1zm5.4 0V94h2.1v6.1c1-1.1 2.3-1.7 3.8-1.7.9 0 1.8.2 2.4.5.7.4 1.2.9 1.5 1.5.3.6.4 1.6.4 2.8v7.8h-2v-7.8c0-1-.2-1.8-.7-2.3s-1.1-.7-2-.7c-.6 0-1.2.2-1.8.5-.6.3-1 .8-1.2 1.3-.2.5-.4 1.3-.4 2.3v6.7h-2.1zm20.6 0V94h3.5l4.1 12c.4 1.1.7 2 .8 2.5l.9-2.7L94.9 94H98v17h-2.2V96.8L90.7 111h-2.1l-5.1-14.5V111h-2.1zm28.3-1.5c-.8.7-1.6 1.1-2.3 1.4-.7.3-1.5.4-2.4.4-1.4 0-2.5-.3-3.2-1-.7-.7-1.1-1.5-1.1-2.5 0-.6.1-1.2.4-1.7.3-.5.7-.9 1.1-1.2.5-.3 1-.5 1.5-.7.4-.1 1.1-.2 1.9-.3 1.7-.2 3-.4 3.8-.7v-.5c0-.8-.2-1.4-.6-1.8-.5-.5-1.4-.7-2.4-.7s-1.8.2-2.2.5c-.5.3-.8 1-1.1 1.8l-2.1-.3c.2-.9.5-1.6.9-2.1s1.1-1 1.9-1.2c.8-.3 1.8-.4 2.9-.4 1.1 0 2 .1 2.6.4.7.2 1.2.6 1.5.9.3.4.5.8.7 1.4.1.4.1 1 .1 1.9v2.8c0 1.9 0 3.2.1 3.7s.3 1 .5 1.5H110c-.1-.5-.2-1-.3-1.6zm-.1-4.7c-.8.3-1.9.6-3.5.8-.9.1-1.5.3-1.9.4-.4.2-.6.4-.8.7-.2.3-.3.6-.3 1 0 .6.2 1 .6 1.4.4.4 1.1.6 1.9.6.8 0 1.6-.2 2.2-.5.6-.4 1.1-.8 1.4-1.4.2-.5.3-1.2.3-2.1v-.9zm4.6 2.5 2.1-.3c.1.8.5 1.5 1 1.9.5.4 1.3.7 2.3.7 1 0 1.7-.2 2.2-.6.5-.4.7-.8.7-1.4 0-.5-.2-.8-.6-1.1-.3-.2-1-.4-2.2-.7-1.6-.4-2.7-.7-3.3-1-.6-.3-1.1-.7-1.4-1.2-.3-.5-.5-1-.5-1.7 0-.5.1-1.1.4-1.5.3-.5.6-.9 1.1-1.2.3-.2.8-.4 1.4-.6.6-.2 1.2-.2 1.9-.2 1 0 1.9.1 2.6.4.8.3 1.3.7 1.7 1.1.4.5.6 1.1.7 1.9l-2.1.3c-.1-.6-.4-1.1-.8-1.5-.5-.4-1.1-.5-1.9-.5-1 0-1.7.2-2.1.5-.4.3-.6.7-.6 1.1 0 .3.1.5.3.7.2.2.4.4.8.6.2.1.8.3 1.9.5 1.5.4 2.6.7 3.2 1 .6.3 1.1.6 1.4 1.1.3.5.5 1.1.5 1.8s-.2 1.4-.6 2c-.4.6-1 1.1-1.8 1.4-.8.3-1.7.5-2.7.5-1.6 0-2.9-.3-3.8-1-1-.7-1.6-1.7-1.8-3zm21.3 2.2c-.8.7-1.6 1.1-2.3 1.4-.7.3-1.5.4-2.4.4-1.4 0-2.5-.3-3.2-1-.7-.7-1.1-1.5-1.1-2.5 0-.6.1-1.2.4-1.7.3-.5.7-.9 1.1-1.2.5-.3 1-.5 1.5-.7.4-.1 1.1-.2 1.9-.3 1.7-.2 3-.4 3.8-.7v-.5c0-.8-.2-1.4-.6-1.8-.5-.5-1.4-.7-2.4-.7s-1.8.2-2.2.5c-.5.3-.8 1-1.1 1.8l-2.1-.3c.2-.9.5-1.6.9-2.1s1.1-1 1.9-1.2c.8-.3 1.8-.4 2.9-.4 1.1 0 2 .1 2.6.4.7.2 1.2.6 1.5.9s.5.8.7 1.4c.1.4.1 1 .1 1.9v2.8c0 1.9 0 3.2.1 3.7s.3 1 .5 1.5h-2.2c-.1-.5-.2-1-.3-1.6zm-.2-4.7c-.8.3-1.9.6-3.5.8-.9.1-1.5.3-1.9.4-.4.2-.6.4-.8.7-.2.3-.3.6-.3 1 0 .6.2 1 .6 1.4.4.4 1.1.6 1.9.6.8 0 1.6-.2 2.2-.5.6-.4 1.1-.8 1.4-1.4.2-.5.3-1.2.3-2.1v-.9zm12.6 6.2V94h6c1.4 0 2.4.1 3.1.2 1 .2 1.9.6 2.6 1.2.9.8 1.6 1.7 2.1 2.9s.7 2.5.7 4c0 1.3-.2 2.4-.5 3.4s-.7 1.8-1.2 2.5-1 1.2-1.6 1.5c-.6.4-1.3.7-2.1.9-.8.2-1.7.3-2.8.3h-6.3zm2.3-2h3.7c1.2 0 2.1-.1 2.7-.3.7-.2 1.2-.5 1.6-.9.5-.5 1-1.3 1.3-2.2s.5-2 .5-3.3c0-1.8-.3-3.1-.9-4.1-.6-1-1.3-1.6-2.2-1.9-.6-.2-1.6-.3-3-.3h-3.7v13zm23.7-2 2.2.3c-.3 1.3-1 2.2-1.9 2.9-.9.7-2.2 1-3.6 1-1.9 0-3.3-.6-4.4-1.7-1.1-1.1-1.6-2.7-1.6-4.7 0-2.1.5-3.7 1.6-4.8 1.1-1.1 2.5-1.7 4.3-1.7 1.7 0 3.1.6 4.1 1.7 1.1 1.1 1.6 2.7 1.6 4.7v.6h-9.4c.1 1.4.5 2.4 1.2 3.1.7.7 1.6 1.1 2.6 1.1.8 0 1.5-.2 2-.6.5-.3.9-1 1.3-1.9zm-7.1-3.3h7.1c-.1-1-.4-1.8-.8-2.3-.7-.8-1.6-1.2-2.7-1.2-1 0-1.8.3-2.5 1-.6.5-1 1.4-1.1 2.5zm12 12v-17h2v1.6c.5-.6 1-1.1 1.6-1.4.6-.3 1.3-.5 2.1-.5 1.1 0 2 .3 2.9.8.8.5 1.4 1.3 1.9 2.3.4 1 .6 2.1.6 3.2 0 1.3-.2 2.4-.7 3.4-.5 1-1.1 1.8-2 2.3-.9.5-1.8.8-2.8.8-.7 0-1.4-.1-1.9-.4-.6-.3-1-.7-1.4-1.1v6h-2.3zm1.9-10.8c0 1.6.3 2.8 1 3.5.7.8 1.5 1.1 2.4 1.1 1 0 1.8-.4 2.4-1.2s1-2 1-3.6-.3-2.7-1-3.5c-.7-.8-1.5-1.2-2.4-1.2-.9 0-1.7.4-2.4 1.2-.6.9-1 2.1-1 3.7zm19.9 4.6c-.8.7-1.6 1.1-2.3 1.4-.7.3-1.5.4-2.4.4-1.4 0-2.5-.3-3.2-1-.7-.7-1.1-1.5-1.1-2.5 0-.6.1-1.2.4-1.7.3-.5.7-.9 1.1-1.2.5-.3 1-.5 1.5-.7.4-.1 1.1-.2 1.9-.3 1.7-.2 3-.4 3.8-.7v-.5c0-.8-.2-1.4-.6-1.8-.5-.5-1.4-.7-2.4-.7s-1.8.2-2.2.5c-.5.3-.8 1-1.1 1.8l-2.1-.3c.2-.9.5-1.6.9-2.1s1.1-1 1.9-1.2c.8-.3 1.8-.4 2.9-.4 1.1 0 2 .1 2.6.4.7.2 1.2.6 1.5.9s.5.8.7 1.4c.1.4.1 1 .1 1.9v2.8c0 1.9 0 3.2.1 3.7s.3 1 .5 1.5H201c-.2-.5-.3-1-.4-1.6zm-.2-4.7c-.8.3-1.9.6-3.5.8-.9.1-1.5.3-1.9.4-.4.2-.6.4-.8.7-.2.3-.3.6-.3 1 0 .6.2 1 .6 1.4.4.4 1.1.6 1.9.6.8 0 1.6-.2 2.2-.5.6-.4 1.1-.8 1.4-1.4.2-.5.3-1.2.3-2.1v-.9zm5.5 6.2V98.7h1.9v1.8c.9-1.4 2.3-2 4-2 .8 0 1.5.1 2.1.4.6.3 1.1.6 1.4 1 .3.4.5.9.7 1.5.1.4.1 1.1.1 2v7.6H214v-7.5c0-.9-.1-1.5-.3-1.9-.2-.4-.5-.8-.9-1-.4-.3-.9-.4-1.5-.4-.9 0-1.7.3-2.4.8-.7.6-1 1.6-1 3.2v6.7h-2zm25.1 0v-7.2l-6.7-9.8h2.8l3.4 5.1c.6 1 1.2 1.9 1.8 2.9.5-.9 1.2-1.9 1.9-3l3.4-5h2.7l-7 9.8v7.2H231zm17.5-1.5c-.8.7-1.6 1.1-2.3 1.4-.7.3-1.5.4-2.4.4-1.4 0-2.5-.3-3.2-1-.7-.7-1.1-1.5-1.1-2.5 0-.6.1-1.2.4-1.7.3-.5.7-.9 1.1-1.2.5-.3 1-.5 1.5-.7.4-.1 1.1-.2 1.9-.3 1.7-.2 3-.4 3.8-.7v-.5c0-.8-.2-1.4-.6-1.8-.5-.5-1.4-.7-2.4-.7s-1.8.2-2.2.5c-.5.3-.8 1-1.1 1.8l-2.1-.3c.2-.9.5-1.6.9-2.1s1.1-1 1.9-1.2 1.8-.4 2.9-.4c1.1 0 2 .1 2.6.4.7.2 1.2.6 1.5.9s.5.8.7 1.4c.1.4.1 1 .1 1.9v2.8c0 1.9 0 3.2.1 3.7s.3 1 .5 1.5h-2c-.3-.5-.4-1-.5-1.6zm-.1-4.7c-.8.3-1.9.6-3.5.8-.9.1-1.5.3-1.9.4-.4.2-.6.4-.8.7-.2.3-.3.6-.3 1 0 .6.2 1 .6 1.4.4.4 1.1.6 1.9.6.8 0 1.6-.2 2.2-.5.6-.4 1.1-.8 1.4-1.4.2-.5.3-1.2.3-2.1v-.9zm5.5 6.2V98.7h1.9v1.8c.9-1.4 2.3-2 4-2 .8 0 1.5.1 2.1.4.6.3 1.1.6 1.4 1 .3.4.5.9.7 1.5.1.4.1 1.1.1 2v7.6H262v-7.5c0-.9-.1-1.5-.3-1.9-.2-.4-.5-.8-.9-1-.4-.3-.9-.4-1.5-.4-.9 0-1.7.3-2.4.8-.7.6-1 1.6-1 3.2v6.7h-2zm13.1 1 2.1.3c.1.6.3 1.1.7 1.4.5.4 1.3.6 2.2.6 1 0 1.8-.2 2.3-.6.5-.4.9-.9 1.1-1.6.1-.4.2-1.3.2-2.7-.9 1.1-2.1 1.6-3.5 1.6-1.7 0-3.1-.6-4-1.8-1-1.2-1.4-2.7-1.4-4.4 0-1.2.2-2.3.7-3.3.4-1 1.1-1.8 1.9-2.3.8-.5 1.8-.8 2.9-.8 1.5 0 2.7.6 3.7 1.8v-1.5h2v10.6c0 1.9-.2 3.3-.6 4.1s-1 1.4-1.9 1.9c-.9.5-1.9.7-3.2.7-1.5 0-2.7-.3-3.7-1-1.1-.7-1.5-1.6-1.5-3zm1.8-7.4c0 1.6.3 2.8 1 3.5.7.7 1.5 1.1 2.5 1.1s1.8-.4 2.5-1.1c.7-.7 1-1.9 1-3.5 0-1.5-.3-2.6-1-3.4-.7-.8-1.5-1.1-2.5-1.1s-1.8.4-2.4 1.1-1.1 1.9-1.1 3.4zm19.1 6.4V94h2.3v15h8.6v2h-10.9zm22.1-4 2.2.3c-.4 1.3-1 2.2-1.9 2.9-.9.7-2.2 1-3.6 1-1.9 0-3.3-.6-4.4-1.7-1.1-1.1-1.6-2.7-1.6-4.7 0-2.1.5-3.7 1.6-4.8 1.1-1.1 2.5-1.7 4.3-1.7 1.7 0 3.1.6 4.1 1.7 1.1 1.1 1.6 2.7 1.6 4.7v.6h-9.4c.1 1.4.5 2.4 1.2 3.1.7.7 1.6 1.1 2.6 1.1.8 0 1.5-.2 2-.6.5-.3 1-1 1.3-1.9zm-7-3.3h7.1c-.1-1-.4-1.8-.8-2.3-.7-.8-1.6-1.2-2.7-1.2-1 0-1.8.3-2.5 1-.7.5-1.1 1.4-1.1 2.5zm13.9 7.3h-2V94h2.1v6.1c.9-1.1 2.1-1.7 3.5-1.7.8 0 1.5.2 2.2.5.7.3 1.3.7 1.7 1.3.4.6.8 1.2 1.1 2 .3.8.4 1.6.4 2.5 0 2.1-.5 3.7-1.6 4.9-1.1 1.2-2.4 1.7-3.9 1.7s-2.7-.6-3.5-1.8v1.5zm0-6.2c0 1.5.2 2.5.6 3.2.7 1.1 1.6 1.6 2.7 1.6.9 0 1.7-.4 2.4-1.2.7-.8 1-2 1-3.5 0-1.6-.3-2.8-1-3.6-.7-.8-1.4-1.1-2.4-1.1-.9 0-1.7.4-2.4 1.2-.6.7-.9 1.9-.9 3.4zm11.6-8.4V94h2.1v2.4h-2.1zm0 14.6V98.7h2.1V111h-2.1zm5.4 0V94h2.1v6.1c1-1.1 2.3-1.7 3.8-1.7.9 0 1.8.2 2.4.5.7.4 1.2.9 1.5 1.5.3.6.4 1.6.4 2.8v7.8H342v-7.8c0-1-.2-1.8-.7-2.3-.5-.5-1.1-.7-2-.7-.6 0-1.2.2-1.8.5-.6.3-1 .8-1.2 1.3-.2.5-.4 1.3-.4 2.3v6.7h-2zm20.5 0V94h6.6c1.3 0 2.4.2 3.2.5.8.3 1.4.9 1.9 1.6.5.7.7 1.5.7 2.2 0 .7-.2 1.4-.6 2.1-.4.6-1 1.2-1.8 1.6 1.1.3 1.9.8 2.4 1.5.6.7.9 1.6.9 2.6 0 .8-.2 1.5-.5 2.2-.3.7-.8 1.2-1.3 1.6-.5.4-1.1.7-1.9.8-.8.2-1.7.3-2.8.3h-6.8zm2.3-9.9h3.8c1 0 1.8-.1 2.2-.2.6-.2 1-.5 1.3-.8.3-.4.4-.9.4-1.5s-.1-1.1-.4-1.5c-.3-.4-.7-.7-1.2-.9-.5-.2-1.4-.2-2.7-.2h-3.5v5.1zm0 7.9h4.3c.7 0 1.3 0 1.6-.1.5-.1 1-.2 1.3-.5.4-.2.7-.5.9-.9.2-.4.3-.9.3-1.4 0-.6-.2-1.2-.5-1.7s-.8-.8-1.4-1c-.6-.2-1.4-.3-2.6-.3h-4v5.9zm22.1.5c-.8.7-1.6 1.1-2.3 1.4-.7.3-1.5.4-2.4.4-1.4 0-2.5-.3-3.2-1-.7-.7-1.1-1.5-1.1-2.5 0-.6.1-1.2.4-1.7.3-.5.7-.9 1.1-1.2.5-.3 1-.5 1.5-.7.4-.1 1.1-.2 1.9-.3 1.7-.2 3-.4 3.8-.7v-.5c0-.8-.2-1.4-.6-1.8-.5-.5-1.4-.7-2.4-.7s-1.8.2-2.2.5-.8 1-1.1 1.8l-2.1-.3c.2-.9.5-1.6.9-2.1s1.1-1 1.9-1.2c.8-.3 1.8-.4 2.9-.4 1.1 0 2 .1 2.6.4.7.2 1.2.6 1.5.9.3.4.5.8.7 1.4.1.4.1 1 .1 1.9v2.8c0 1.9 0 3.2.1 3.7s.3 1 .5 1.5h-2.2c-.1-.5-.3-1-.3-1.6zm-.2-4.7c-.8.3-1.9.6-3.5.8-.9.1-1.5.3-1.9.4-.4.2-.6.4-.8.7s-.3.6-.3 1c0 .6.2 1 .6 1.4.4.4 1.1.6 1.9.6.8 0 1.6-.2 2.2-.5.6-.4 1.1-.8 1.4-1.4.2-.5.3-1.2.3-2.1v-.9zm5.5-8.4V94h2.1v2.4h-2.1zm0 14.6V98.7h2.1V111h-2.1zm5.4 0V94h2.1v9.7l5.1-5h2.8l-4.8 4.6 5.3 7.7h-2.6l-4.2-6.3-1.5 1.4v4.9h-2.2z" class="st1"/>
</svg>