<svg xmlns="http://www.w3.org/2000/svg" viewBox="0 0 362 110">
  <path fill="#000000" d="m114.8 88.2 1.4-.1c.1.6.2 1 .5 1.4.2.4.6.7 1.2.9.5.2 1.1.3 1.8.3.6 0 1.1-.1 1.5-.3.4-.2.8-.4 1-.7.2-.3.3-.6.3-1s-.1-.7-.3-.9c-.2-.3-.6-.5-1-.7-.3-.1-1-.3-2-.6-1.1-.3-1.8-.5-2.2-.7-.5-.3-1-.6-1.2-1.1-.3-.4-.4-.9-.4-1.4 0-.6.2-1.1.5-1.6s.8-.9 1.4-1.1c.6-.3 1.3-.4 2.1-.4s1.6.1 2.2.4 1.1.7 1.5 1.2c.3.5.5 1.1.6 1.8l-1.5.1c-.1-.7-.3-1.3-.8-1.6-.5-.4-1.1-.6-2-.6-.9 0-1.6.2-2 .5-.4.3-.6.7-.6 1.2 0 .4.1.8.4 1 .3.3 1.1.5 2.3.8 1.2.3 2.1.5 2.5.7.7.3 1.2.7 1.5 1.2.3.5.5 1 .5 1.6 0 .6-.2 1.2-.5 1.7s-.9 1-1.5 1.3c-.7.3-1.4.4-2.2.4-1 0-1.9-.2-2.6-.5-.7-.3-1.3-.8-1.6-1.4s-.8-1.1-.8-1.8zM125.8 82v-1.6h1.4V82h-1.4zm0 9.9v-8.3h1.4v8.3h-1.4zM128.8 89.4l1.4-.2c.1.6.3 1 .7 1.3.4.3.9.4 1.5.4s1.1-.1 1.4-.4.5-.6.5-.9c0-.3-.1-.6-.4-.8-.2-.1-.7-.3-1.4-.5-1-.3-1.7-.5-2.1-.7s-.7-.5-.9-.8c-.2-.3-.3-.7-.3-1.1 0-.4.1-.7.3-1 .2-.3.4-.6.7-.8.2-.2.5-.3.9-.4.4-.1.8-.2 1.2-.2.7 0 1.2.1 1.7.3s.9.4 1.1.8.4.7.5 1.3l-1.4.2c-.1-.4-.2-.8-.5-1-.3-.2-.7-.4-1.3-.4-.6 0-1.1.1-1.4.3-.3.2-.4.5-.4.8 0 .2.1.3.2.5s.3.3.5.4c.1.1.6.2 1.2.4 1 .3 1.7.5 2.1.7.4.2.7.4.9.7.2.3.3.7.3 1.2s-.1.9-.4 1.3-.7.7-1.2 1-1.2.2-1.9.2c-1.1 0-1.9-.2-2.5-.7-.5-.4-.9-1-1-1.9zM140.4 90.6l.2 1.2c-.4.1-.8.1-1.1.1-.5 0-.9-.1-1.2-.2s-.5-.4-.6-.6c-.1-.3-.2-.8-.2-1.7v-4.8h-1v-1.1h1v-2.1l1.4-.8v2.9h1.4v1.1H139v4.9c0 .4 0 .7.1.8 0 .1.1.2.2.3.1.1.3.1.5.1.1-.1.3-.1.6-.1zM147.5 89.2l1.5.2c-.2.8-.7 1.5-1.3 2-.6.5-1.4.7-2.4.7-1.2 0-2.2-.4-2.9-1.1s-1.1-1.8-1.1-3.1c0-1.4.4-2.5 1.1-3.3s1.7-1.2 2.8-1.2c1.1 0 2 .4 2.7 1.1s1.1 1.8 1.1 3.2v.4h-6.2c.1.9.3 1.6.8 2.1s1 .7 1.7.7c.5 0 1-.1 1.3-.4.4-.3.6-.7.9-1.3zm-4.7-2.3h4.6c-.1-.7-.2-1.2-.5-1.6-.4-.5-1-.8-1.7-.8-.6 0-1.2.2-1.6.6-.5.5-.7 1.1-.8 1.8zM150.7 91.9v-8.3h1.3v1.2c.3-.4.6-.7 1-1 .4-.2.9-.4 1.5-.4s1.1.1 1.5.4c.4.3.7.6.8 1.1.7-1 1.5-1.5 2.6-1.5.8 0 1.5.2 1.9.7.4.5.7 1.2.7 2.1v5.7h-1.4v-5.2c0-.6 0-1-.1-1.2-.1-.2-.3-.4-.5-.6-.2-.2-.5-.2-.8-.2-.6 0-1.1.2-1.5.6-.4.4-.6 1-.6 1.9V92h-1.4v-5.4c0-.6-.1-1.1-.3-1.4-.2-.3-.6-.5-1.1-.5-.4 0-.8.1-1.1.3s-.6.5-.7.9c-.2.4-.2 1-.2 1.7v4.3h-1.6zM168.6 91.9V80.4h3.9c.9 0 1.6.1 2 .2.7.2 1.2.4 1.7.8.6.5 1.1 1.2 1.4 2 .3.8.4 1.7.4 2.7 0 .9-.1 1.6-.3 2.3s-.5 1.2-.8 1.7c-.3.4-.7.8-1 1-.4.3-.8.4-1.4.6-.5.1-1.1.2-1.8.2h-4.1zm1.5-1.4h2.4c.8 0 1.3-.1 1.8-.2s.8-.3 1-.6c.4-.4.6-.8.8-1.4.2-.6.3-1.3.3-2.2 0-1.2-.2-2.1-.6-2.8-.4-.6-.9-1.1-1.4-1.3-.4-.2-1.1-.2-2-.2H170v8.7zM185.4 90.8c-.5.4-1 .8-1.5.9s-1 .3-1.6.3c-.9 0-1.6-.2-2.1-.7-.5-.4-.7-1-.7-1.7 0-.4.1-.8.3-1.1.2-.3.4-.6.7-.8.3-.2.6-.4 1-.5.3-.1.7-.1 1.3-.2 1.1-.1 2-.3 2.5-.5v-.4c0-.6-.1-1-.4-1.2-.4-.3-.9-.5-1.6-.5-.7 0-1.1.1-1.5.3s-.5.6-.7 1.2l-1.4-.2c.1-.6.3-1.1.6-1.4.3-.4.7-.6 1.2-.8s1.2-.3 1.9-.3 1.3.1 1.7.3.8.4 1 .6.4.6.4 1c0 .2.1.7.1 1.3v1.9c0 1.3 0 2.1.1 2.5s.2.7.4 1h-1.5c0-.2-.1-.6-.2-1zm-.1-3.1c-.5.2-1.3.4-2.3.5-.6.1-1 .2-1.2.3-.2.1-.4.3-.6.5-.1.2-.2.4-.2.7 0 .4.1.7.4.9.3.3.7.4 1.2.4s1-.1 1.4-.4.7-.6.9-1c.2-.3.2-.8.2-1.4v-.5zM188.9 91.9v-8.3h1.3v1.2c.6-.9 1.5-1.4 2.6-1.4.5 0 1 .1 1.4.3s.7.4.9.7.4.6.4 1c.1.3.1.7.1 1.4v5.1h-1.4v-5c0-.6-.1-1-.2-1.3s-.3-.5-.6-.7-.6-.3-1-.3c-.6 0-1.1.2-1.6.6s-.7 1.1-.7 2.2v4.5h-1.2zM203.2 90.8c-.5.4-1 .8-1.5.9s-1 .3-1.6.3c-.9 0-1.6-.2-2.1-.7s-.7-1-.7-1.7c0-.4.1-.8.3-1.1s.4-.6.7-.8.6-.4 1-.5c.3-.1.7-.1 1.3-.2 1.1-.1 2-.3 2.5-.5v-.4c0-.6-.1-1-.4-1.2-.4-.3-.9-.5-1.6-.5-.7 0-1.1.1-1.5.3s-.5.6-.7 1.2l-1.4-.2c.1-.6.3-1.1.6-1.4s.7-.6 1.2-.8 1.2-.3 1.9-.3 1.3.1 1.7.3.8.4 1 .6.4.6.4 1c0 .2.1.7.1 1.3v1.9c0 1.3 0 2.1.1 2.5s.2.7.4 1h-1.5c-.1-.2-.1-.6-.2-1zm-.1-3.1c-.5.2-1.3.4-2.3.5-.6.1-1 .2-1.2.3s-.4.3-.6.5-.2.4-.2.7c0 .4.1.7.4.9s.7.4 1.2.4 1-.1 1.4-.4.7-.6.9-1c.2-.3.2-.8.2-1.4v-.5zM211.3 91.9V80.4h4.3c.8 0 1.3 0 1.7.1.6.1 1 .3 1.4.5s.7.6.9 1.1.3 1 .3 1.6c0 1-.3 1.8-.9 2.5s-1.7 1-3.4 1h-2.9v4.7h-1.4zm1.5-6.1h3c1 0 1.7-.2 2.1-.5s.6-.9.6-1.5c0-.5-.1-.9-.4-1.2s-.6-.6-1-.7c-.3-.1-.7-.1-1.4-.1h-2.9v4zM227.5 89.2l1.5.2c-.2.8-.7 1.5-1.3 2s-1.4.7-2.4.7c-1.2 0-2.2-.4-2.9-1.1s-1.1-1.8-1.1-3.1c0-1.4.4-2.5 1.1-3.3s1.7-1.2 2.8-1.2c1.1 0 2 .4 2.7 1.1s1.1 1.8 1.1 3.2v.4h-6.2c.1.9.3 1.6.8 2.1s1 .7 1.7.7c.5 0 1-.1 1.3-.4s.7-.7.9-1.3zm-4.6-2.3h4.6c-.1-.7-.2-1.2-.5-1.6-.4-.5-1-.8-1.7-.8-.6 0-1.2.2-1.6.6s-.8 1.1-.8 1.8zM230.7 91.9v-8.3h1.3v1.2c.6-.9 1.5-1.4 2.6-1.4.5 0 1 .1 1.4.3s.7.4.9.7.4.6.4 1c.1.3.1.7.1 1.4v5.1H236v-5c0-.6-.1-1-.2-1.3s-.3-.5-.6-.7-.6-.3-1-.3c-.6 0-1.1.2-1.6.6s-.7 1.1-.7 2.2v4.5h-1.2zM239 89.4l1.4-.2c.1.6.3 1 .7 1.3s.9.4 1.5.4 1.1-.1 1.4-.4.5-.6.5-.9c0-.3-.1-.6-.4-.8-.2-.1-.7-.3-1.4-.5-1-.3-1.7-.5-2.1-.7s-.7-.5-.9-.8-.3-.7-.3-1.1c0-.4.1-.7.3-1s.4-.6.7-.8c.2-.2.5-.3.9-.4s.8-.2 1.2-.2c.7 0 1.2.1 1.7.3s.9.4 1.1.8.4.7.5 1.3l-1.4.2c-.1-.4-.2-.8-.5-1s-.7-.4-1.3-.4c-.6 0-1.1.1-1.4.3s-.4.5-.4.8c0 .2.1.3.2.5s.3.3.5.4c.1.1.6.2 1.2.4 1 .3 1.7.5 2.1.7s.7.4.9.7.3.7.3 1.2-.1.9-.4 1.3-.7.7-1.2 1-1.1.3-1.8.3c-1.1 0-1.9-.2-2.5-.7s-.9-1.1-1.1-2zM247.6 82v-1.6h1.4V82h-1.4zm0 9.9v-8.3h1.4v8.3h-1.4zM256.6 91.9v-1.2c-.6.9-1.5 1.4-2.6 1.4-.5 0-.9-.1-1.4-.3s-.7-.4-.9-.7-.4-.6-.4-1c-.1-.3-.1-.7-.1-1.3v-5.1h1.4v4.6c0 .7 0 1.2.1 1.5.1.4.3.7.6.9s.6.3 1.1.3.8-.1 1.2-.3.6-.5.8-.9.2-.9.2-1.6v-4.4h1.4v8.3h-1.4zM260.1 91.9v-8.3h1.3v1.2c.6-.9 1.5-1.4 2.6-1.4.5 0 1 .1 1.4.3s.7.4.9.7.4.6.4 1c.1.3.1.7.1 1.4v5.1h-1.4v-5c0-.6-.1-1-.2-1.3s-.3-.5-.6-.7-.6-.3-1-.3c-.6 0-1.1.2-1.6.6s-.7 1.1-.7 2.2v4.5h-1.2zM273.5 91.9V80.4h4.3c.9 0 1.6.1 2.1.3s.9.6 1.2 1.1.4 1 .4 1.5-.1 1-.4 1.4-.7.8-1.2 1c.7.2 1.2.5 1.6 1s.6 1.1.6 1.7c0 .5-.1 1-.3 1.5s-.5.8-.8 1.1-.8.4-1.3.6-1.1.2-1.8.2h-4.4zm1.5-6.7h2.5c.7 0 1.2 0 1.4-.1.4-.1.7-.3.9-.6s.3-.6.3-1-.1-.7-.3-1-.4-.5-.8-.6-.9-.2-1.7-.2H275v3.5zm0 5.3h2.9c.5 0 .8 0 1-.1l.9-.3c.3-.1.4-.4.6-.6s.2-.6.2-1-.1-.8-.3-1.1-.5-.5-.9-.7-.9-.2-1.7-.2H275v4zM284.3 91.9V80.4h5.1c1 0 1.8.1 2.3.3s1 .6 1.3 1.1.5 1.1.5 1.7c0 .8-.3 1.5-.8 2.1s-1.3.9-2.4 1.1c.4.2.7.4.9.6.4.4.9.9 1.3 1.5l2 3.1h-1.9l-1.5-2.4c-.4-.7-.8-1.2-1.1-1.6s-.5-.6-.8-.8-.5-.2-.7-.3c-.2 0-.5-.1-.8-.1h-1.8v5.1h-1.6zm1.5-6.4h3.3c.7 0 1.2-.1 1.6-.2s.7-.4.9-.7.3-.7.3-1c0-.5-.2-1-.6-1.3s-1-.5-1.9-.5h-3.6v3.7zM296.1 91.9V80.4h1.5v11.5h-1.5zM307.3 91.9V81.8h-3.8v-1.4h9.1v1.4h-3.8v10.1h-1.5zM317.9 89.2l1.5.2c-.2.8-.7 1.5-1.3 2s-1.4.7-2.4.7c-1.2 0-2.2-.4-2.9-1.1s-1.1-1.8-1.1-3.1c0-1.4.4-2.5 1.1-3.3s1.7-1.2 2.8-1.2c1.1 0 2 .4 2.7 1.1s1.1 1.8 1.1 3.2v.4h-6.2c.1.9.3 1.6.8 2.1s1 .7 1.7.7c.5 0 1-.1 1.3-.4s.7-.7.9-1.3zm-4.6-2.3h4.6c-.1-.7-.2-1.2-.5-1.6-.4-.5-1-.8-1.7-.8-.6 0-1.2.2-1.6.6s-.8 1.1-.8 1.8zM321.1 91.9v-8.3h1.3v1.3c.3-.6.6-1 .9-1.2s.6-.3.9-.3c.5 0 1 .2 1.4.5l-.5 1.3c-.3-.2-.7-.3-1-.3-.3 0-.6.1-.8.3s-.4.4-.5.8c-.2.5-.2 1-.2 1.6v4.3h-1.5zM326.5 95V83.6h1.3v1.1c.3-.4.6-.7 1-.9s.8-.3 1.4-.3c.7 0 1.3.2 1.9.5s1 .9 1.2 1.5.4 1.4.4 2.2c0 .8-.2 1.6-.5 2.3s-.7 1.2-1.3 1.6-1.2.4-1.9.4c-.5 0-.9-.1-1.3-.3s-.7-.4-.9-.8v4h-1.3zm1.2-7.2c0 1.1.2 1.9.6 2.4s1 .8 1.6.8c.6 0 1.2-.3 1.6-.8s.7-1.3.7-2.5c0-1.1-.2-1.8-.7-2.4s-1-.8-1.6-.8c-.6 0-1.1.3-1.6.8s-.6 1.4-.6 2.5zM340.8 90.8c-.5.4-1 .8-1.5.9s-1 .3-1.6.3c-.9 0-1.6-.2-2.1-.7s-.7-1-.7-1.7c0-.4.1-.8.3-1.1s.4-.6.7-.8.6-.4 1-.5c.3-.1.7-.1 1.3-.2 1.1-.1 2-.3 2.5-.5v-.4c0-.6-.1-1-.4-1.2-.4-.3-.9-.5-1.6-.5-.7 0-1.1.1-1.5.3s-.5.6-.7 1.2l-1.4-.2c.1-.6.3-1.1.6-1.4s.7-.6 1.2-.8 1.2-.3 1.9-.3 1.3.1 1.7.3.8.4 1 .6.4.6.4 1c0 .2.1.7.1 1.3v1.9c0 1.3 0 2.1.1 2.5s.2.7.4 1H341c-.1-.2-.2-.6-.2-1zm-.1-3.1c-.5.2-1.3.4-2.3.5-.6.1-1 .2-1.2.3s-.4.3-.6.5-.2.4-.2.7c0 .4.1.7.4.9s.7.4 1.2.4 1-.1 1.4-.4.7-.6.9-1c.2-.3.2-.8.2-1.4v-.5zM349.6 91.9v-1c-.5.8-1.3 1.2-2.3 1.2-.7 0-1.3-.2-1.8-.5s-1-.9-1.3-1.5-.5-1.4-.5-2.3c0-.8.1-1.6.4-2.3s.7-1.2 1.2-1.6 1.2-.5 1.9-.5c.5 0 .9.1 1.3.3s.7.5 1 .8v-4.1h1.4v11.5h-1.3zm-4.4-4.2c0 1.1.2 1.9.7 2.4s1 .8 1.6.8c.6 0 1.1-.3 1.6-.8s.6-1.3.6-2.3c0-1.1-.2-2-.7-2.5s-1-.8-1.6-.8c-.6 0-1.1.3-1.6.8s-.6 1.3-.6 2.4zM358.6 91.9v-1.2c-.6.9-1.5 1.4-2.6 1.4-.5 0-.9-.1-1.4-.3s-.7-.4-.9-.7-.4-.6-.4-1c-.1-.3-.1-.7-.1-1.3v-5.1h1.4v4.6c0 .7 0 1.2.1 1.5.1.4.3.7.6.9s.6.3 1.1.3.8-.1 1.2-.3.6-.5.8-.9.2-.9.2-1.6v-4.4h1.4v8.3h-1.4z" class="st1"/>
  <path fill="#0064B5" d="M154.6 47.2c0 2.2-1 3.7-2.8 4.4-1.3.5-10.4 1.4-27.6 2.6.4 2.6 1.8 4.8 4.3 6.7 2.2 1.7 4.9 2.6 7.6 2.6 4.7 0 9-1.5 12.9-4.5l1.4-1.2c.2 0 .3 0 .5.1.1 0 .6 1.1 1.7 3.1 1 2 1.6 3.1 1.6 3.2 0 .2-.2.5-.7 1-4.4 4.6-10 7-16.8 7-6.9 0-12.4-2-16.4-6.2-4.1-4.1-6.2-9.6-6.2-16.4-.1-5.9 2-11.6 5.9-16 4-4.8 9.1-7.2 15.1-7.2 5.6 0 10.2 2 14 6.2 3.6 4.1 5.5 9 5.5 14.6zM144 44.5c0-2.4-1-4.6-2.9-6.5-2-1.9-4.1-2.8-6.6-2.8-2.7 0-5.2 1.1-7.3 3.3s-3.2 4.6-3.2 7.4c0 .6.5.9 1.6.9 5.3-.1 10.5-.5 15.8-1.3 1.7-.3 2.6-.6 2.6-1zm56 25.7c0 .6-.3 1-.9 1h-8.8c-.5 0-.8-.4-.8-1.3 0-1.4 0-3.7.1-6.6.1-3 .1-5.2.1-6.7V46c0-3.4-.5-5.8-1.5-7.2-1.2-1.7-3.4-2.5-6.6-2.5-1.5 0-3.6.8-6.2 2.5-2.8 1.8-4.2 3.3-4.2 4.7v26.7c0 .8-.3 1.1-.8 1.1h-8.6c-.6 0-.9-.4-.9-1 0-2.3 0-5.8.1-10.6.1-4.7.1-8.2.1-10.6 0-5.9-.6-11.8-2-17.5-.1-.2-.1-.4-.1-.6 0-.3.2-.5.6-.6.2 0 1.9-.3 5.1-.8 3.2-.5 4.8-.8 5-.8s.3.2.4.7c.2 1.9.5 3.8 1 5.6 1.6-1.2 3.6-2.7 6.1-4.5 3.1-1.9 6.1-2.8 9-2.8 5.6 0 9.4 1.6 11.4 4.8 1.5 2.4 2.3 6.2 2.3 11.5 0 .9 0 2.3-.1 4.2 0 1.9-.1 3.3 0 4.3 0 2 0 5 .1 8.9s.1 6.8.1 8.7zm29.2-12.8c0 4.4-1.8 8-5.3 10.6-3.2 2.4-7.1 3.6-11.7 3.6-1.8 0-2.8 0-3-.1-.5-.2-.8-1-.8-2.2 0-1-.1-2-.2-2.9-.1-1-.2-1.9-.2-2.9 0-.4.3-.6.8-.8.6-.1 1.1-.1 1.6 0 .9.1 1.4.1 1.3.1 5.6 0 8.4-1.7 8.4-5.2 0-1.6-1.2-3.1-3.7-4.5-4-2.2-6.3-3.6-6.9-4-2.5-2.1-3.7-4.9-3.7-8.3 0-4.4 1.7-7.9 5-10.4 3-2.2 6.8-3.3 11.5-3.3.4 0 .8.2.9.6.4 1.2.8 2.4 1.1 3.6.6 2 .8 3.2.8 3.6 0 .3-.3.5-.8.6-1.9.3-3.8.5-5.7.8-2.3.6-3.4 1.9-3.4 3.8 0 1.3 1.2 2.7 3.6 4 3.6 2 5.8 3.4 6.8 4.3 2.4 2.5 3.6 5.4 3.6 9zm18-39.5c0 3.6-2 5.5-6.1 5.5s-6.2-1.8-6.2-5.5c0-1.6.7-3.1 1.9-4 2.5-2 6.1-2 8.6 0 1.2 1 1.9 2.5 1.8 4zm-.3 12.1c0 2.3-.2 5.7-.4 10.4s-.4 8.1-.4 10.4c0 2.2 0 5.4.1 9.7s.1 7.6.1 9.7c0 .6-.3.9-.8.9h-8.7c-.6 0-.9-.6-.9-1.8 0-2 0-5.1.2-9.2.1-4.1.2-7.2.2-9.3 0-2.3-.2-5.8-.5-10.4-.4-4.6-.5-8.1-.5-10.4 0-.5.3-.8.9-.8.8 0 1.6.1 2.5.2 1.7.3 3.4.3 5 0 .8-.1 1.7-.2 2.5-.2.5 0 .7.2.7.8zM361 70.2c0 .6-.3 1-.9 1h-8.8c-.5 0-.8-.4-.8-1.3 0-1.4 0-3.7.1-6.6.1-3 .1-5.2.1-6.7V46c0-3.4-.5-5.8-1.5-7.2-1.2-1.7-3.4-2.5-6.6-2.5-1.5 0-3.6.8-6.2 2.5-2.8 1.8-4.2 3.3-4.2 4.7v26.7c0 .8-.3 1.1-.8 1.1h-8.6c-.6 0-.9-.4-.9-1 0-2.3 0-5.8.1-10.6.1-4.7.1-8.2.1-10.6 0-5.9-.6-11.8-2-17.5-.1-.2-.1-.4-.1-.6 0-.3.2-.5.6-.6.2 0 1.9-.3 5.1-.8s4.8-.8 5-.8.3.2.4.7c.2 1.9.5 3.8 1 5.6 1.6-1.2 3.6-2.7 6.1-4.5 3.1-1.9 6.1-2.8 9-2.8 5.6 0 9.4 1.6 11.4 4.8 1.5 2.4 2.3 6.2 2.3 11.5 0 .9 0 2.3-.1 4.2 0 1.9-.1 3.3-.1 4.3 0 2 0 5 .1 8.9s.2 6.8.2 8.7z" class="st2"/>
  <path fill="#ff5e46" d="M314.6 39.9c0 8.8-2.8 16.4-8.4 22.8-5.9 6.6-13.2 9.9-21.9 9.9s-16-3.3-21.9-9.8c-5.6-6.3-8.4-13.9-8.4-22.8 0-8.8 2.8-16.4 8.6-22.7 5.9-6.6 13.1-9.9 21.8-9.9 8.7 0 16 3.3 21.8 9.9 5.6 6.2 8.4 13.8 8.4 22.6zm-10.7-.1c0-5.8-1.8-10.9-5.4-15.2-3.8-4.6-8.6-6.8-14.3-6.8-5.7 0-10.4 2.3-14.2 6.9-3.6 4.3-5.3 9.4-5.3 15.2-.1 5.5 1.8 10.9 5.3 15.2 3.8 4.6 8.5 6.9 14.2 7 5.8 0 10.5-2.3 14.3-7 3.6-4.3 5.4-9.4 5.4-15.3zM41.1 97c-8.6 13.5-18 15.7-12.7 5.8 23-42.6 35-63.3 43.5-73.2 8.3-9.6 19.7-14.3 29.6-2.4 6 7.2 11.1 20.2 4.1 37.4C97.5 84.9 73.2 92 54.4 89.2c-1.8-.3-1.6-2.8.2-2.8 23.8 1 37.3-10.8 41.4-20.1 6.4-14.3 1.3-25.5-7.6-27.5-12.8-3-28 28-47.3 58.2z"/>
  <path fill="#0064B5" d="M68.9 13C77.5-.6 87-2.8 81.6 7.1c-23 42.6-35 63.3-43.5 73.2-8.3 9.6-19.7 14.3-29.6 2.4-6-7.2-11.1-20.2-4.2-37.3C12.5 25.1 36.8 18 55.6 20.8c1.8.3 1.6 2.8-.2 2.8-23.8-1-37.3 10.9-41.4 20.2-6.4 14.2-1.3 25.5 7.6 27.5 12.8 2.9 28-28.1 47.3-58.3z" class="st2"/>
</svg>